# AST/ASF file generated using VICON BodyLanguage
# -----------------------------------------------
:version 1.10
:name VICON
:units
  mass 1.0
  length 0.45
  angle deg
:documentation
   .ast/.asf automatically generated from VICON data using
   VICON BodyBuilder and BodyLanguage model FoxedUp or BRILLIANT.MOD
:root
   order TX TY TZ RX RY RZ
   axis XYZ
   position 0 0 0  
   orientation 0 0 0 
:bonedata
  begin
     id 1 
     name lhipjoint
     direction 0.440178 -0.822639 0.359871 
     length 2.53113 
     axis 0 0 0  XYZ
  end
  begin
     id 2 
     name lfemur
     direction 0.34202 -0.939693 0  
     length 7.88132  
     axis 0 0 20  XYZ
    dof rx ry rz
    limits (-160.0 20.0)
           (-70.0 70.0)
           (-60.0 70.0)
  end
  begin
     id 3 
     name ltibia
     direction 0.34202 -0.939693 0   
     length 8.43783   
     axis 0 0 20   XYZ
    dof rx
    limits (-10.0 170.0)
  end
  begin
     id 4 
     name lfoot
     direction 0.0886351 -0.243523 0.965837   
     length 2.63414   
     axis -90 7.62852e-016 20   XYZ
    dof rx rz
    limits (-45.0 90.0)
           (-70.0 20.0)
  end
  begin
     id 5 
     name ltoes
     direction 1.53703e-011 -4.21717e-011 1   
     length 1.31427   
     axis -90 7.62852e-016 20   XYZ
    dof rx
    limits (-90.0 20.0)
  end
  begin
     id 6 
     name rhipjoint
     direction -0.399779 -0.839773 0.367367   
     length 2.47948  
     axis 0 0 0  XYZ 
  end
  begin
     id 7 
     name rfemur
     direction -0.34202 -0.939693 0   
     length 7.74806   
     axis 0 0 -20   XYZ
    dof rx ry rz
    limits (-160.0 20.0)
           (-70.0 70.0)
           (-70.0 60.0)
  end
  begin
     id 8 
     name rtibia
     direction -0.34202 -0.939693 0   
     length 8.74432   
     axis 0 0 -20   XYZ
    dof rx
    limits (-10.0 170.0)
 end
 begin
     id 9 
     name rfoot
     direction -0.108514 -0.298139 0.948334   
     length 2.66102  
     axis -90 -7.62852e-016 -20   XYZ
    dof rx rz
    limits (-45.0 90.0)
           (-20.0 70.0)
  end
  begin
     id 10 
     name rtoes
     direction -1.53392e-011 -4.22077e-011 1   
     length 1.31983   
     axis -90 -7.62852e-016 -20   XYZ
    dof rx
    limits (-90.0 20.0)
  end
  begin
     id 11 
     name lowerback
     direction 0.0113257 0.999866 0.0118602   
     length 2.58694   
     axis 0 0 0   XYZ
    dof rx ry rz
    limits (-20.0 45.0)
           (-30.0 30.0)
           (-30.0 30.0)
  end
  begin
     id 12 
     name upperback
     direction -0.0164747 0.995193 -0.0965375   
     length 2.52368   
     axis 0 0 0   XYZ
    dof rx ry rz
    limits (-20.0 45.0)
           (-30.0 30.0)
           (-30.0 30.0)
  end
  begin
     id 13 
     name thorax
     direction -0.0194301 0.99433 -0.104552   
     length 2.56099   
     axis 0 0 0   XYZ
    dof rx ry rz
    limits (-20.0 45.0)
           (-30.0 30.0)
           (-30.0 30.0)
  end
  begin
     id 14 
     name lowerneck
     direction 0.0148543 0.995587 -0.092657   
     length 1.71582   
     axis 0 0 0   XYZ
    dof rx ry rz
    limits (-20.0 45.0)
           (-30.0 30.0)
           (-30.0 30.0)
  end
  begin
     id 15 
     name upperneck
     direction -0.0135467 0.993656 -0.111639   
     length 1.68937   
     axis 0 0 0   XYZ
    dof rx ry rz
    limits (-20.0 45.0)
           (-30.0 30.0)
           (-30.0 30.0)
  end
  begin
     id 16
     name head
     direction -0.00615349 0.999547 -0.029448  
     length 1.7462  
     axis 0 0 0   XYZ
    dof rx ry rz
    limits (-20.0 45.0)
           (-30.0 30.0)
           (-30.0 30.0)
  end
  begin
     id 17 
     name lclavicle
     direction 0.988267 0.149885 0.0293713  
     length 4.47222  
     axis 0 0 0   XYZ
    dof ry rz
    limits (-20.0 10.0)
           (0.0 20.0)
  end
  begin
     id 18 
     name lhumerus
     direction 1 -4.48986e-011 -1.14833e-027   
     length 5.37148   
     axis 180 -30 -90   XYZ
    dof rx ry rz
    limits (-60.0 90.0)
           (-90.0 90.0)
           (-90.0 90.0)
  end
  begin
     id 19
     name lradius
     direction 0.999998 0.00170963 -0.000987055   
     length 3.94212   
     axis 180 -30 -90   XYZ
    dof rx
    limits (-10.0 170.0)
  end
  begin
     id 20
     name lwrist
     direction 0.999998 7.53149e-005 -0.00194706   
     length 1.97106   
     axis 4.65056e-015 90 90   XYZ
    dof ry
    limits (-180.0 0.0)
 end
  begin
     id 21 
     name lhand
     direction 1 -4.48973e-011 -1.31746e-026   
     length 1.17917   
     axis 8.4065e-015 90 90   XYZ
    dof rx rz
    limits (-90.0 90.0)
           (-45.0 45.0)
  end
  begin
     id 22 
     name lfingers
     direction 1 -4.49107e-011 -2.63492e-026   
     length 0.950679   
     axis 1.6813e-014 90 90   XYZ
    dof rx
    limits (0.0 90.0)
  end
  begin
     id 23
     name lthumb
     direction 0.707107 -6.35048e-011 0.707107   
     length 1.36499   
     axis -90 45 2.85299e-015   XYZ
    dof rx rz
    limits (-45.0 45.0)
           (-45.0 45.0)
  end
  begin
     id 24 
     name rclavicle
     direction -0.996699 0.0642895 -0.0495725   
     length 4.62611  
     axis 0 0 0   XYZ 
    dof ry rz
    limits (-10.0 20.0)
           (-20.0 0.0)
  end
  begin
     id 25 
     name rhumerus
     direction -1 -4.48919e-011 -2.41059e-027  
     length 5.4981   
     axis 180 30 90   XYZ
    dof rx ry rz
    limits (-90.0 60.0)
           (-90.0 90.0)
           (-90.0 90.0)
  end
  begin
     id 26 
     name rradius
     direction -0.999999 0.00118101 -0.000681858   
     length 3.48381   
     axis 180 30 90   XYZ
    dof rx
    limits (-10.0 170.0)
  end
  begin
     id 27 
     name rwrist
     direction -0.999999 0.000321823 -0.00132288   
     length 1.7419   
     axis 4.65056e-015 -90 -90   XYZ
    dof ry
    limits (-180.0 0.0)
  end
  begin
     id 28
     name rhand
     direction -1 -4.49022e-011 -1.31746e-026   
     length 1.34932   
     axis 8.4065e-015 -90 -90   XYZ
    dof rx rz
    limits (-90.0 90.0)
           (-45.0 45.0)
  end
  begin
     id 29
     name rfingers
     direction -1 -4.49178e-011 -2.63492e-026   
     length 1.08785   
     axis 1.6813e-014 -90 -90   XYZ
    dof rx
    limits (0.0 90.0)
  end
  begin
     id 30
     name rthumb
     direction -0.707107 -6.34713e-011 0.707107   
     length 1.56195   
     axis -90 -45 -2.85299e-015   XYZ
    dof rx rz
    limits (-45.0 45.0)
           (-45.0 45.0)
  end
:hierarchy
  begin
    root lhipjoint rhipjoint lowerback
    lhipjoint lfemur
    lfemur ltibia
    ltibia lfoot
    lfoot ltoes
    rhipjoint rfemur
    rfemur rtibia
    rtibia rfoot
    rfoot rtoes
    lowerback upperback
    upperback thorax
    thorax lowerneck lclavicle rclavicle
    lowerneck upperneck
    upperneck head
    lclavicle lhumerus
    lhumerus lradius
    lradius lwrist
    lwrist lhand lthumb
    lhand lfingers
    rclavicle rhumerus
    rhumerus rradius
    rradius rwrist
    rwrist rhand rthumb
    rhand rfingers
  end

#!OML:ASF X:\für Bonn\!DataBase\2005_08_10_Bjorn_Final\c3d\bjorn.ASF
:FULLY-SPECIFIED
:DEGREES
1
root -6.44503 19.2125 -1.74219 1453.34 -85.0742 -17.6391
lowerback -2.29818 0.951991 4.66899
upperback 9.22611 0.685804 -0.443436
thorax 11.2526 0.666766 -3.0284
lowerneck -2.72581 -2.2976 4.3933
upperneck 2.28141 -3.18845 -1.66803
head 1.06748 -1.57967 -1.31178
rclavicle 1.07592e-014 -1.30204e-014
rhumerus -22.1369 -18.8426 -86.3723
rradius 17.9502
rwrist 8.66854
rhand -10.9369 6.30404
rfingers 7.12502
rthumb 15.0813 -23.1266
lclavicle 1.07592e-014 -1.30204e-014
lhumerus -29.6722 26.9134 77.7347
lradius 12.6123
lwrist -60.885
lhand -4.38284 -3.23754
lfingers 7.12502
lthumb 21.3863 25.6022
rfemur -8.51625 -2.55402 19.6354
rtibia 29.7625
rfoot -10.3103 13.8487
rtoes 3.49584
lfemur -6.89757 2.27057 -14.4822
ltibia 62.8344
lfoot 4.25814 -3.66483
ltoes -17.2653
2
root -6.59139 19.211 -1.73951 1454.6 -85.1339 -18.8919
lowerback -2.22349 1.08076 4.7377
upperback 9.21053 0.858586 -0.437334
thorax 11.2081 0.75528 -3.03979
lowerneck -2.72621 -2.39755 4.43345
upperneck 2.13072 -3.32182 -1.71628
head 1.01463 -1.64824 -1.33351
rclavicle 1.89467e-014 2.98177e-016
rhumerus -21.2899 -18.0747 -86.795
rradius 18.2827
rwrist 8.29786
rhand -10.7488 6.27109
rfingers 7.12502
rthumb 15.2625 -23.1458
lclavicle 1.89467e-014 2.98177e-016
lhumerus -30.251 27.4465 77.2491
lradius 12.3616
lwrist -61.9194
lhand -3.43845 -3.03692
lfingers 7.12502
lthumb 22.2931 25.6971
rfemur -7.96593 -2.66722 19.7251
rtibia 29.633
rfoot -10.641 14.1193
rtoes 3.45402
lfemur -8.12489 2.58452 -14.4208
ltibia 62.7099
lfoot 3.28184 -4.50592
ltoes -16.049
3
root -6.73669 19.2094 -1.73701 1455.62 -85.1868 -19.8774
lowerback -2.14369 1.21235 4.79517
upperback 9.18474 1.03994 -0.458762
thorax 11.1503 0.84834 -3.07399
lowerneck -2.79976 -2.49837 4.56251
upperneck 2.0534 -3.46231 -1.80585
head 0.995344 -1.71972 -1.38637
rclavicle -8.77137e-015 4.27387e-015
rhumerus -20.4947 -17.0534 -87.2677
rradius 18.7139
rwrist 7.73829
rhand -10.6691 6.26459
rfingers 7.12502
rthumb 15.3393 -23.1465
lclavicle -8.77137e-015 4.27387e-015
lhumerus -30.7952 27.78 76.8269
lradius 12.1712
lwrist -62.6718
lhand -2.80321 -2.98776
lfingers 7.12502
lthumb 22.9028 25.6721
rfemur -7.4477 -2.73026 19.7912
rtibia 29.5326
rfoot -10.9647 14.3588
rtoes 3.75373
lfemur -9.35543 2.87225 -14.4035
ltibia 62.4659
lfoot 2.19805 -5.2503
ltoes -14.7686
4
root -6.88302 19.2079 -1.7335 1456.53 -85.2679 -20.7497
lowerback -2.08642 1.33657 4.8254
upperback 9.16249 1.21181 -0.476741
thorax 11.1086 0.934585 -3.09037
lowerneck -2.83599 -2.58945 4.62589
upperneck 1.95272 -3.58623 -1.87531
head 0.96377 -1.78334 -1.42015
rclavicle 3.02401e-014 6.85807e-015
rhumerus -19.7034 -15.837 -87.7264
rradius 19.1407
rwrist 7.06645
rhand -10.7202 6.39064
rfingers 7.12502
rthumb 15.29 -23.0242
lclavicle 3.02401e-014 6.85807e-015
lhumerus -31.2824 27.7551 76.6034
lradius 12.0259
lwrist -62.8869
lhand -2.48946 -2.90935
lfingers 7.12502
lthumb 23.2039 25.7129
rfemur -6.95552 -2.80176 19.8305
rtibia 29.4667
rfoot -11.3304 14.617
rtoes 3.68195
lfemur -10.5422 3.20452 -14.4191
ltibia 62.0913
lfoot 1.02025 -5.93282
ltoes -13.8315
5
root -7.02768 19.201 -1.72939 1457.22 -85.3649 -21.4061
lowerback -2.00961 1.46321 4.84646
upperback 9.12108 1.39337 -0.530039
thorax 11.0352 1.02609 -3.13924
lowerneck -2.83853 -2.68654 4.73604
upperneck 1.85053 -3.71903 -1.92459
head 0.925058 -1.85075 -1.45494
rclavicle 7.97623e-015 1.98785e-015
rhumerus -18.9861 -14.4842 -88.2335
rradius 19.6752
rwrist 6.09853
rhand -10.8668 6.47434
rfingers 7.12502
rthumb 15.1488 -22.9512
lclavicle 7.97623e-015 1.98785e-015
lhumerus -31.7459 27.3666 76.5029
lradius 11.9671
lwrist -62.6151
lhand -2.3423 -2.81425
lfingers 7.12502
lthumb 23.3451 25.7901
rfemur -6.48127 -2.86825 19.8293
rtibia 29.4313
rfoot -11.6917 14.8923
rtoes 3.9145
lfemur -11.6957 3.55088 -14.472
ltibia 61.6104
lfoot -0.127732 -6.50714
ltoes -12.7153
6
root -7.1733 19.192 -1.72523 1457.79 -85.478 -21.9185
lowerback -1.97253 1.6057 4.8429
upperback 9.08232 1.59659 -0.586222
thorax 10.9906 1.12694 -3.17442
lowerneck -2.86012 -2.79142 4.84184
upperneck 1.76766 -3.86337 -1.95967
head 0.895351 -1.92368 -1.48524
rclavicle 1.08835e-014 1.39149e-015
rhumerus -18.2749 -13.0536 -88.7014
rradius 20.2185
rwrist 4.9647
rhand -11.0924 6.61818
rfingers 7.12502
rthumb 14.9314 -22.8236
lclavicle 1.08835e-014 1.39149e-015
lhumerus -32.1178 26.7536 76.5526
lradius 11.9177
lwrist -62.0456
lhand -2.40168 -2.70405
lfingers 7.12502
lthumb 23.2881 25.9075
rfemur -6.0518 -2.91263 19.8131
rtibia 29.4311
rfoot -12.0689 15.1702
rtoes 3.92586
lfemur -12.8325 3.9049 -14.5567
ltibia 61.0138
lfoot -1.34671 -6.78875
ltoes -12.4071
